inDegrees=yes
name=ik_OwnShooting_orientations2.mot
DataType=double
version=3
OpenSimVersion=4.3-2021-08-27-4bc7ad9
endheader
time	pelvis_tilt	pelvis_list	pelvis_rotation	pelvis_tx	pelvis_ty	pelvis_tz	hip_flexion_r	hip_adduction_r	hip_rotation_r	knee_angle_r	knee_angle_r_beta	ankle_angle_r	subtalar_angle_r	mtp_angle_r	hip_flexion_l	hip_adduction_l	hip_rotation_l	knee_angle_l	knee_angle_l_beta	ankle_angle_l	subtalar_angle_l	mtp_angle_l	lumbar_extension	lumbar_bending	lumbar_rotation	arm_flex_r	arm_add_r	arm_rot_r	elbow_flex_r	pro_sup_r	wrist_flex_r	wrist_dev_r	arm_flex_l	arm_add_l	arm_rot_l	elbow_flex_l	pro_sup_l	wrist_flex_l	wrist_dev_l
10.92	-6.415183313247758	-0.2009788005948282	-63.07362918106984	0	0.9399999999999999	0	45.00000011886165	-9.999999988573334	0	60.00014061962231	1.047200005472	-4.999999851047217	0	0	45.00000011886165	-9.999999988573334	0	60.00014061962231	1.047200005472	-4.999999851047217	0	0	12.85047202354867	-31.14630364472134	28.98864878497324	89.99162124210159	89.99451346703398	89.99162312910094	0.002499530539197497	45.00000025534056	0	0	0	-14.99999998962054	0	75.00017584614761	45.00000025534056	0	0
10.93	-6.3990034826039	-0.195316687876718	-63.07791938579116	0	0.9399999999999999	0	45.00000011886165	-9.999999988573334	0	60.00014061962231	1.047200005472	-4.999999851047217	0	0	45.00000011886165	-9.999999988573334	0	60.00014061962231	1.047200005472	-4.999999851047217	0	0	9.46144881129967	-23.07364667944628	40.5432708933954	89.98926573645606	89.99666675349168	89.98926721459431	0.005523171379596624	45.00000025534056	0	0	0	-14.99999998962054	0	75.00017584614761	45.00000025534056	0	0
10.94	-6.384025393460432	-0.1879524922338875	-63.07303693077106	0	0.9399999999999999	0	45.00000011886165	-9.999999988573334	0	60.00014061962231	1.047200005472	-4.999999851047217	0	0	45.00000011886165	-9.999999988573334	0	60.00014061962231	1.047200005472	-4.999999851047217	0	0	12.47316052411141	-45.01859962241002	31.71096243471476	89.98632796095077	89.99436671170076	89.98633648383382	0.002880247884144559	45.00000025534056	0	0	0	-14.99999998962054	0	75.00017584614761	45.00000025534056	0	0
10.95	-6.360483207912824	-0.1719792199441936	-63.06999824135882	0	0.9399999999999999	0	45.00000011886165	-9.999999988573334	0	60.00014061962231	1.047200005472	-4.999999851047217	0	0	45.00000011886165	-9.999999988573334	0	60.00014061962231	1.047200005472	-4.999999851047217	0	0	12.32115570000843	-78.18990946432514	20.01279531630019	89.97490015529355	89.94518657272377	89.97528195678811	0.001981711920301408	45.00000025534056	0	0	0	-14.99999998962054	0	75.00017584614761	45.00000025534056	0	0
10.96	-6.400508898093312	-0.191152693767148	-63.03810095567137	0	0.9399999999999999	0	45.00000011886165	-9.999999988573334	0	60.00014061962231	1.047200005472	-4.999999851047217	0	0	45.00000011886165	-9.999999988573334	0	60.00014061962231	1.047200005472	-4.999999851047217	0	0	44.18953171463741	-84.17624308619278	54.61158094546607	89.9639085184356	89.97488929600269	89.96427780739698	0.002338288425613108	45.00000025534056	0	0	0	-14.99999998962054	0	75.00017584614761	45.00000025534056	0	0
10.97	-11.37407436953552	-2.805787308736816	-61.58068738517123	0	0.9399999999999999	0	45.00000011886165	-9.999999988573334	0	60.00014061962231	1.047200005472	-4.999999851047217	0	0	45.00000011886165	-9.999999988573334	0	60.00014061962231	1.047200005472	-4.999999851047217	0	0	74.09599720014481	-79.8463150658138	89.88369597782535	89.96770104757799	89.99201744146255	89.96788565528659	0.004161464514953925	45.00000025534056	0	0	0	-14.99999998962054	0	75.00017584614761	45.00000025534056	0	0
10.98	-6.350411041269082	-0.1609734866976405	-63.03316745260656	0	0.9399999999999999	0	45.00000011886165	-9.999999988573334	0	60.00014061962231	1.047200005472	-4.999999851047217	0	0	45.00000011886165	-9.999999988573334	0	60.00014061962231	1.047200005472	-4.999999851047217	0	0	48.95177862053827	-28.52534865925747	79.57157615525635	89.99612194097183	89.99785560966886	89.99612219962279	149.9936948968628	45.00000025534056	0	0	0	-14.99999998962054	0	75.00017584614761	45.00000025534056	0	0
10.99	-8.304353717118614	-1.21458244493184	-60.41053410893519	0	0.9399999999999999	0	45.00000011886165	-9.999999988573334	0	60.00014061962231	1.047200005472	-4.999999851047217	0	0	45.00000011886165	-9.999999988573334	0	60.00014061962231	1.047200005472	-4.999999851047217	0	0	40.26866457354217	-51.62883148929722	89.94442345599995	89.9024201597463	89.99805232983914	89.9030194440666	149.9975809252123	45.00000025534056	0	0	0	-14.99999998962054	0	75.00017584614761	45.00000025534056	0	0
11	-7.412883448397343	-0.7243713935174056	-60.97555522719097	0	0.9399999999999999	0	45.00000011886165	-9.999999988573334	0	60.00014061962231	1.047200005472	-4.999999851047217	0	0	45.00000011886165	-9.999999988573334	0	60.00014061962231	1.047200005472	-4.999999851047217	0	0	30.5375557429827	-43.90336810437186	89.93074474963791	78.73402358037504	89.99792786405031	80.73254402753882	149.9971030725347	45.00000025534056	0	0	0	-14.99999998962054	0	75.00017584614761	45.00000025534056	0	0
11.01	-6.350507612174995	-0.1537644873484549	-62.99738290920632	0	0.9399999999999999	0	45.00000011886165	-9.999999988573334	0	60.00014061962231	1.047200005472	-4.999999851047217	0	0	45.00000011886165	-9.999999988573334	0	60.00014061962231	1.047200005472	-4.999999851047217	0	0	40.52944286000857	-47.39113245129124	85.39930663600872	89.98324415927108	89.99784181493034	89.98326094799022	149.9962817695186	45.00000025534056	0	0	0	-14.99999998962054	0	75.00017584614761	45.00000025534056	0	0
11.02	-6.352009657115408	-0.1585121237647858	-63.0130464065362	0	0.9399999999999999	0	45.00000011886165	-9.999999988573334	0	60.00014061962231	1.047200005472	-4.999999851047217	0	0	45.00000011886165	-9.999999988573334	0	60.00014061962231	1.047200005472	-4.999999851047217	0	0	44.81719861517146	-40.71850757773142	85.89720248892471	89.99221415949562	89.99790209977782	89.99220843771666	149.996190821889	45.00000025534056	0	0	0	-14.99999998962054	0	75.00017584614761	45.00000025534056	0	0
11.03	-6.986567575043886	-0.4646106907697366	-62.32431885551821	0	0.9399999999999999	0	45.00000011886165	-9.999999988573334	0	60.00014061962231	1.047200005472	-4.999999851047217	0	0	45.00000011886165	-9.999999988573334	0	60.00014061962231	1.047200005472	-4.999999851047217	0	0	46.72853986316849	-42.60605716604142	89.84162318563637	89.99096634318556	89.99799621696624	89.99096641579651	149.9969536878277	45.00000025534056	0	0	0	-14.99999998962054	0	75.00017584614761	45.00000025534056	0	0
11.04	-7.849483722561712	-0.9332847251510694	-61.3189917700029	0	0.9399999999999999	0	45.00000011886165	-9.999999988573334	0	60.00014061962231	1.047200005472	-4.999999851047217	0	0	45.00000011886165	-9.999999988573334	0	60.00014061962231	1.047200005472	-4.999999851047217	0	0	45.08179687233925	-47.41480305224253	89.92830329486765	89.98522797489507	89.99799760630029	89.98523466449085	149.9971652489422	45.00000025534056	0	0	0	-14.99999998962054	0	75.00017584614761	45.00000025534056	0	0
11.05	-7.291060257343549	-0.6188675146944018	-61.78566030576353	0	0.9399999999999999	0	45.00000011886165	-9.999999988573334	0	60.00014061962231	1.047200005472	-4.999999851047217	0	0	45.00000011886165	-9.999999988573334	0	60.00014061962231	1.047200005472	-4.999999851047217	0	0	41.60455836140206	-51.84151075090012	89.88650505388915	89.93932956277526	89.99794428377503	89.93948283587957	149.9972030855024	45.00000025534056	0	0	0	-14.99999998962054	0	75.00017584614761	45.00000025534056	0	0
11.06	-6.494462718948161	-0.2199090967795129	-62.65458761095026	0	0.9399999999999999	0	45.00000011886165	-9.999999988573334	0	60.00014061962231	1.047200005472	-4.999999851047217	0	0	45.00000011886165	-9.999999988573334	0	60.00014061962231	1.047200005472	-4.999999851047217	0	0	37.08179404740224	-50.23930809232345	89.58157800297711	86.35242848167037	89.99786823563107	87.02659107849814	149.9969549075911	45.00000025534056	0	0	0	-14.99999998962054	0	75.00017584614761	45.00000025534056	0	0
11.07	-6.324331222002393	-0.139587332727155	-62.85249187494225	0	0.9399999999999999	0	45.00000011886165	-9.999999988573334	0	60.00014061962231	1.047200005472	-4.999999851047217	0	0	45.00000011886165	-9.999999988573334	0	60.00014061962231	1.047200005472	-4.999999851047217	0	0	35.29360824575895	-49.1054338406291	88.78374374924027	85.68285390178784	89.9978690269546	86.72225372940645	149.9969695924066	45.00000025534056	0	0	0	-14.99999998962054	0	75.00017584614761	45.00000025534056	0	0
11.08	-6.333773226362724	-0.1487258991660221	-62.81997802298649	0	0.9399999999999999	0	45.00000011886165	-9.999999988573334	0	60.00014061962231	1.047200005472	-4.999999851047217	0	0	45.00000011886165	-9.999999988573334	0	60.00014061962231	1.047200005472	-4.999999851047217	0	0	35.31771928966171	-48.90005470961778	89.13434671726776	85.81502874555434	89.99789209239874	86.51017008168488	149.9970818726841	45.00000025534056	0	0	0	-14.99999998962054	0	75.00017584614761	45.00000025534056	0	0
11.09	-6.452752876005928	-0.2093431926119307	-62.62745625333933	0	0.9399999999999999	0	45.00000011886165	-9.999999988573334	0	60.00014061962231	1.047200005472	-4.999999851047217	0	0	45.00000011886165	-9.999999988573334	0	60.00014061962231	1.047200005472	-4.999999851047217	0	0	37.98704136663859	-51.13988768856345	89.56813383995315	88.12956171885496	89.99790431020655	88.20154048028654	149.9971242446452	45.00000025534056	0	0	0	-14.99999998962054	0	75.00017584614761	45.00000025534056	0	0
11.1	-6.541354997708066	-0.2560423211202182	-62.64594694238471	0	0.9399999999999999	0	45.00000011886165	-9.999999988573334	0	60.00014061962231	1.047200005472	-4.999999851047217	0	0	45.00000011886165	-9.999999988573334	0	60.00014061962231	1.047200005472	-4.999999851047217	0	0	49.96971771457939	-46.6073141465377	89.65359486880077	89.99058860603981	89.99780049172485	89.99059264318234	149.9960572927065	45.00000025534056	0	0	0	-14.99999998962054	0	75.00017584614761	45.00000025534056	0	0
11.11	-6.268694398287247	-0.1044819344135904	-62.84501721458636	0	0.9399999999999999	0	45.00000011886165	-9.999999988573334	0	60.00014061962231	1.047200005472	-4.999999851047217	0	0	45.00000011886165	-9.999999988573334	0	60.00014061962231	1.047200005472	-4.999999851047217	0	0	52.05330921611982	-43.6891860886121	88.76558438842923	89.99304812594143	89.99777032653044	89.99304754599956	149.9955048688666	45.00000025534056	0	0	0	-14.99999998962054	0	75.00017584614761	45.00000025534056	0	0
